HIERARCHY
ROOT root
{
	OFFSET 0.000000 0.000000 0.000000
	CHANNELS 6 Xposition Yposition Zposition Zrotation Yrotation Xrotation
	JOINT lhip
	{
		OFFSET 0.058581 -0.082280 -0.017664
		CHANNELS 3 Zrotation Yrotation Xrotation
		JOINT lknee
		{
			OFFSET 0.043451 -0.386469 0.008037
			CHANNELS 3 Zrotation Yrotation Xrotation
			JOINT lankle
			{
				OFFSET -0.014790 -0.426874 -0.037428
				CHANNELS 3 Zrotation Yrotation Xrotation
				JOINT ltoe
				{
					OFFSET 0.041054 -0.060286 0.122042
					CHANNELS 3 Zrotation Yrotation Xrotation
					End Site
					{
						OFFSET 0.000000 0.000000 0.000000
					}
				}
			}
		}
	}
	JOINT rhip
	{
		OFFSET -0.060310 -0.090513 -0.013543
		CHANNELS 3 Zrotation Yrotation Xrotation
		JOINT rknee
		{
			OFFSET -0.043257 -0.383688 -0.004843
			CHANNELS 3 Zrotation Yrotation Xrotation
			JOINT rankle
			{
				OFFSET 0.019056 -0.420046 -0.034562
				CHANNELS 3 Zrotation Yrotation Xrotation
				JOINT rtoe
				{
					OFFSET -0.034840 -0.062106 0.130323
					CHANNELS 3 Zrotation Yrotation Xrotation
					End Site
					{
						OFFSET 0.000000 0.000000 0.000000
					}
				}
			}
		}
	}
	JOINT lowerback
	{
		OFFSET 0.004439 0.124404 -0.038385
		CHANNELS 3 Zrotation Yrotation Xrotation
		JOINT upperback
		{
			OFFSET 0.004488 0.137956 0.026820
			CHANNELS 3 Zrotation Yrotation Xrotation
			JOINT chest
			{
				OFFSET -0.002265 0.056032 0.002855
				CHANNELS 3 Zrotation Yrotation Xrotation
				JOINT lowerneck
				{
					OFFSET -0.013390 0.211636 -0.033468
					CHANNELS 3 Zrotation Yrotation Xrotation
					JOINT upperneck
					{
						OFFSET 0.010113 0.088937 0.050410
						CHANNELS 3 Zrotation Yrotation Xrotation
						End Site
						{
							OFFSET 0.000000 0.000000 0.000000
						}
					}
				}
				JOINT lclavicle
				{
					OFFSET 0.071702 0.114000 -0.018898
					CHANNELS 3 Zrotation Yrotation Xrotation
					JOINT lshoulder
					{
						OFFSET 0.122921 0.045205 -0.019046
						CHANNELS 3 Zrotation Yrotation Xrotation
						JOINT lelbow
						{
							OFFSET 0.255332 -0.015649 -0.022946
							CHANNELS 3 Zrotation Yrotation Xrotation
							JOINT lwrist
							{
								OFFSET 0.265709 0.012698 -0.007375
								CHANNELS 3 Zrotation Yrotation Xrotation
								End Site
								{
									OFFSET 0.000000 0.000000 0.000000
								}
							}
						}
					}
				}
				JOINT rclavicle
				{
					OFFSET -0.082954 0.112472 -0.023707
					CHANNELS 3 Zrotation Yrotation Xrotation
					JOINT rshoulder
					{
						OFFSET -0.113228 0.046853 -0.008472
						CHANNELS 3 Zrotation Yrotation Xrotation
						JOINT relbow
						{
							OFFSET -0.260127 -0.014369 -0.031269
							CHANNELS 3 Zrotation Yrotation Xrotation
							JOINT rwrist
							{
								OFFSET -0.269108 0.006794 -0.006027
								CHANNELS 3 Zrotation Yrotation Xrotation
								End Site
								{
									OFFSET 0.000000 0.000000 0.000000
								}
							}
						}
					}
				}
			}
		}
	}
}
MOTION
Frames: 5
Frame Time: 0.033333
1.756188 0.740097 1.000790 -88.978201 3.502611 81.422944 3.415372 1.521377 12.628623 -1.445831 -15.984047 1.122593 2.948302 7.679573 -17.243683 0.000000 -0.000000 0.000000 2.094311 -3.692354 9.788343 2.671666 2.612187 6.907730 3.802894 -3.473055 -16.186540 0.000000 -0.000000 0.000000 -1.138465 1.074278 7.604224 0.712685 -2.608433 5.325762 1.407471 -1.822082 5.269427 3.349541 -0.299763 -10.491708 3.814958 -5.916824 -4.415028 -27.646541 3.339885 -1.571454 -58.361268 -8.240533 5.455207 13.332863 -28.866888 -6.407264 1.521347 -1.340704 -13.976393 26.133748 0.131784 -2.517527 58.652940 2.316584 11.692922 -13.933751 26.654598 -4.158122 5.162748 -1.012964 -6.182535 
1.756731 0.739942 0.999678 -88.543725 3.808311 81.795011 3.767959 1.193998 11.899835 -1.669177 -15.929729 1.543975 2.903976 7.538726 -17.145861 0.000000 -0.000000 0.000000 2.416873 -3.606265 9.369979 2.807726 2.242773 6.822315 3.452266 -3.553660 -16.144403 0.000000 -0.000000 0.000000 -0.795675 0.800868 7.618941 0.770559 -2.767567 4.692093 1.286828 -1.977271 5.197729 3.403352 -0.401322 -9.855376 3.985988 -5.800402 -4.596890 -27.265961 3.770181 -1.155345 -58.699897 -7.729832 5.195899 13.160705 -27.099296 -5.794878 0.573203 -1.307676 -14.398614 26.014790 -0.361265 -2.278191 58.797713 1.822866 11.450772 -13.904224 25.633961 -3.952918 5.348042 -1.030665 -6.877234 
1.757749 0.740605 0.999309 -88.442261 3.847026 81.983813 4.050831 1.221999 11.425401 -2.032470 -15.961932 1.933776 3.249274 7.442674 -17.152803 0.000000 -0.000000 0.000000 2.324315 -3.440358 9.210157 2.976641 3.253780 7.592552 3.402140 -3.628641 -13.141206 0.000000 -0.000000 0.000000 -0.698404 0.636768 7.382916 0.862765 -2.856504 4.577426 1.008715 -2.123369 5.350114 3.550460 -0.344548 -9.549912 3.918224 -5.738364 -4.418323 -27.107122 3.768513 -0.591751 -58.575172 -6.535149 5.771538 11.216637 -25.011863 -1.027629 -1.211525 -1.675436 -11.955508 25.835404 -0.838355 -2.127381 58.928997 1.857551 11.040805 -13.513849 24.298811 -3.729735 5.722980 -0.769602 -7.300135 
1.755704 0.740502 0.998659 -88.670920 3.917632 81.576851 4.295497 1.898787 12.089517 -2.003955 -16.399255 1.774485 3.279043 7.382621 -17.249151 0.000000 -0.000000 0.000000 2.424663 -3.374006 9.776091 2.922081 3.641072 7.535021 3.483097 -3.817013 -13.207379 0.000000 -0.000000 0.000000 -0.703254 0.547656 7.097125 0.868313 -2.731566 4.930448 0.805080 -2.039969 5.777107 3.795488 -0.238505 -9.263078 3.853545 -5.766554 -4.294707 -27.321360 3.901346 -0.480118 -58.214392 -5.666580 5.913625 10.007638 -21.714649 2.106220 -2.503529 -1.657793 -9.417900 25.926511 -1.297991 -2.189285 58.954594 1.591704 10.559192 -13.216599 22.847140 -3.716529 5.898573 -0.717454 -7.272547 
1.755215 0.740217 0.998694 -88.247003 3.940301 81.375660 4.304282 1.822402 12.186808 -2.046401 -16.500099 1.944544 3.197580 7.319295 -17.343521 0.000000 -0.000000 0.000000 2.411635 -3.490794 10.114245 2.959732 3.543926 7.437414 3.422597 -4.009165 -13.154486 0.000000 -0.000000 0.000000 -0.779510 0.467127 7.153088 0.856760 -2.994797 5.117176 0.824431 -2.145430 5.746425 3.779457 -0.132648 -8.709033 3.884403 -5.570969 -4.171134 -27.413448 4.073540 -0.313716 -58.080171 -5.457135 5.522425 9.967156 -20.102066 1.575009 -2.826344 -1.819421 -9.669272 26.002360 -1.567639 -2.132392 58.881241 1.481661 10.416593 -13.183906 22.083804 -3.662405 5.795217 -0.701776 -7.130382 
